<svg width="253" height="36" viewBox="0 0 253 36" fill="none" xmlns="http://www.w3.org/2000/svg">
<path d="M10.1337 7.544C9.01375 7.544 8.06975 7.192 7.30175 6.488C6.56575 5.752 6.19775 4.856 6.19775 3.8C6.19775 2.744 6.56575 1.864 7.30175 1.16C8.06975 0.455997 9.01375 0.103997 10.1337 0.103997C11.2857 0.103997 12.2297 0.455997 12.9657 1.16C13.7337 1.864 14.1177 2.744 14.1177 3.8C14.1177 4.856 13.7337 5.752 12.9657 6.488C12.2297 7.192 11.2857 7.544 10.1337 7.544ZM0.581745 35V30.584H8.06975V17.192C8.06975 16.136 7.55775 15.608 6.53375 15.608H1.25375V11.192H7.44575C9.42975 11.192 10.8697 11.656 11.7657 12.584C12.6937 13.48 13.1577 14.92 13.1577 16.904V30.584H20.6457V35H0.581745ZM24.083 35V1.4H29.075L43.139 26.024V1.4H47.987V35H42.995L28.931 10.376V35H24.083ZM58.9122 35V5.96H49.8882V1.4H73.0242V5.96H64.0002V35H58.9122ZM76.3175 35V1.4H97.7735V5.96H81.4055V15.752H96.3335V20.264H81.4055V30.44H97.7735V35H76.3175ZM101.499 35V1.4H112.491C115.115 1.4 117.275 1.848 118.971 2.744C120.699 3.64 121.979 4.856 122.811 6.392C123.675 7.896 124.107 9.608 124.107 11.528C124.107 13.704 123.547 15.64 122.427 17.336C121.339 19 119.659 20.216 117.387 20.984L124.443 35H118.539L112.107 21.704H106.587V35H101.499ZM106.587 17.096H112.203C114.507 17.096 116.187 16.584 117.243 15.56C118.331 14.536 118.875 13.192 118.875 11.528C118.875 9.832 118.347 8.488 117.291 7.496C116.235 6.472 114.523 5.96 112.155 5.96H106.587V17.096ZM126.728 35V1.4H138.104C140.664 1.4 142.776 1.848 144.44 2.744C146.104 3.608 147.336 4.808 148.136 6.344C148.936 7.88 149.336 9.64 149.336 11.624C149.336 13.608 148.936 15.368 148.136 16.904C147.336 18.44 146.104 19.656 144.44 20.552C142.776 21.416 140.664 21.848 138.104 21.848H131.816V35H126.728ZM131.816 17.288H137.864C140.04 17.288 141.624 16.776 142.616 15.752C143.64 14.728 144.152 13.352 144.152 11.624C144.152 9.928 143.64 8.568 142.616 7.544C141.624 6.488 140.04 5.96 137.864 5.96H131.816V17.288ZM163.141 35.576C160.421 35.576 158.069 34.872 156.085 33.464C154.101 32.056 152.581 30.056 151.525 27.464C150.469 24.872 149.941 21.784 149.941 18.2C149.941 14.616 150.469 11.528 151.525 8.936C152.581 6.344 154.101 4.344 156.085 2.936C158.069 1.528 160.421 0.823999 163.141 0.823999C165.893 0.823999 168.245 1.528 170.197 2.936C172.181 4.344 173.701 6.344 174.757 8.936C175.813 11.528 176.341 14.616 176.341 18.2C176.341 21.784 175.813 24.872 174.757 27.464C173.701 30.056 172.181 32.056 170.197 33.464C168.245 34.872 165.893 35.576 163.141 35.576ZM163.141 30.776C165.541 30.776 167.477 29.704 168.949 27.56C170.421 25.384 171.157 22.264 171.157 18.2C171.157 14.136 170.421 11.032 168.949 8.888C167.477 6.712 165.541 5.624 163.141 5.624C160.709 5.624 158.757 6.712 157.285 8.888C155.845 11.032 155.125 14.136 155.125 18.2C155.125 22.264 155.845 25.384 157.285 27.56C158.757 29.704 160.709 30.776 163.141 30.776ZM188.898 35.576C186.53 35.576 184.45 35.144 182.658 34.28C180.898 33.416 179.506 32.184 178.482 30.584C177.49 28.984 176.978 27.08 176.946 24.872H182.322C182.354 26.568 182.93 28.024 184.05 29.24C185.202 30.424 186.802 31.016 188.85 31.016C190.738 31.016 192.21 30.584 193.266 29.72C194.322 28.824 194.85 27.672 194.85 26.264C194.85 25.08 194.53 24.104 193.89 23.336C193.282 22.536 192.322 21.832 191.01 21.224C189.698 20.584 188.002 19.928 185.922 19.256C183.138 18.36 181.09 17.128 179.778 15.56C178.466 13.96 177.81 12.008 177.81 9.704C177.81 7.048 178.77 4.904 180.69 3.272C182.61 1.64 185.25 0.823999 188.61 0.823999C191.874 0.823999 194.498 1.672 196.482 3.368C198.466 5.032 199.49 7.352 199.554 10.328H194.13C194.13 9.528 193.906 8.76 193.458 8.024C193.01 7.256 192.37 6.632 191.538 6.152C190.706 5.64 189.682 5.384 188.466 5.384C186.962 5.352 185.698 5.72 184.674 6.488C183.65 7.224 183.138 8.232 183.138 9.512C183.138 11.08 183.762 12.312 185.01 13.208C186.258 14.072 188.29 14.968 191.106 15.896C192.866 16.472 194.418 17.176 195.762 18.008C197.138 18.808 198.21 19.848 198.978 21.128C199.778 22.376 200.178 23.976 200.178 25.928C200.178 27.72 199.73 29.352 198.834 30.824C197.938 32.264 196.642 33.416 194.946 34.28C193.282 35.144 191.266 35.576 188.898 35.576ZM211.44 35V5.96H202.416V1.4H225.552V5.96H216.528V35H211.44ZM239.405 35.576C236.685 35.576 234.333 34.872 232.349 33.464C230.365 32.056 228.845 30.056 227.789 27.464C226.733 24.872 226.205 21.784 226.205 18.2C226.205 14.616 226.733 11.528 227.789 8.936C228.845 6.344 230.365 4.344 232.349 2.936C234.333 1.528 236.685 0.823999 239.405 0.823999C242.157 0.823999 244.509 1.528 246.461 2.936C248.445 4.344 249.965 6.344 251.021 8.936C252.077 11.528 252.605 14.616 252.605 18.2C252.605 21.784 252.077 24.872 251.021 27.464C249.965 30.056 248.445 32.056 246.461 33.464C244.509 34.872 242.157 35.576 239.405 35.576ZM239.405 30.776C241.805 30.776 243.741 29.704 245.213 27.56C246.685 25.384 247.421 22.264 247.421 18.2C247.421 14.136 246.685 11.032 245.213 8.888C243.741 6.712 241.805 5.624 239.405 5.624C236.973 5.624 235.021 6.712 233.549 8.888C232.109 11.032 231.389 14.136 231.389 18.2C231.389 22.264 232.109 25.384 233.549 27.56C235.021 29.704 236.973 30.776 239.405 30.776Z" fill="black"/>
</svg>
